<?xml version="1.0" encoding="UTF-8" standalone="no"?>
<!-- Created with Inkscape (http://www.inkscape.org/) -->

<svg
   xmlns:dc="http://purl.org/dc/elements/1.1/"
   xmlns:cc="http://creativecommons.org/ns#"
   xmlns:rdf="http://www.w3.org/1999/02/22-rdf-syntax-ns#"
   xmlns:svg="http://www.w3.org/2000/svg"
   xmlns="http://www.w3.org/2000/svg"
   xmlns:xlink="http://www.w3.org/1999/xlink"
   xmlns:sodipodi="http://sodipodi.sourceforge.net/DTD/sodipodi-0.dtd"
   xmlns:inkscape="http://www.inkscape.org/namespaces/inkscape"
   width="137.34375"
   height="103.1875"
   id="svg2"
   version="1.1"
   inkscape:version="0.92.3 (2405546, 2018-03-11)"
   sodipodi:docname="logo.svg">
  <defs
     id="defs4">
    <linearGradient
       id="linearGradient4281">
      <stop
         style="stop-color:#44aa00;stop-opacity:1;"
         offset="0"
         id="stop4283" />
      <stop
         id="stop4321"
         offset="0.5"
         style="stop-color:#709c09;stop-opacity:0.8392157;" />
      <stop
         style="stop-color:#d40000;stop-opacity:1;"
         offset="1"
         id="stop4285" />
    </linearGradient>
    <inkscape:perspective
       sodipodi:type="inkscape:persp3d"
       inkscape:vp_x="0 : 526.18109 : 1"
       inkscape:vp_y="0 : 1000 : 0"
       inkscape:vp_z="744.09448 : 526.18109 : 1"
       inkscape:persp3d-origin="372.04724 : 350.78739 : 1"
       id="perspective10" />
    <inkscape:perspective
       id="perspective2830"
       inkscape:persp3d-origin="0.5 : 0.33333333 : 1"
       inkscape:vp_z="1 : 0.5 : 1"
       inkscape:vp_y="0 : 1000 : 0"
       inkscape:vp_x="0 : 0.5 : 1"
       sodipodi:type="inkscape:persp3d" />
    <inkscape:perspective
       id="perspective2861"
       inkscape:persp3d-origin="0.5 : 0.33333333 : 1"
       inkscape:vp_z="1 : 0.5 : 1"
       inkscape:vp_y="0 : 1000 : 0"
       inkscape:vp_x="0 : 0.5 : 1"
       sodipodi:type="inkscape:persp3d" />
    <inkscape:perspective
       id="perspective2883"
       inkscape:persp3d-origin="0.5 : 0.33333333 : 1"
       inkscape:vp_z="1 : 0.5 : 1"
       inkscape:vp_y="0 : 1000 : 0"
       inkscape:vp_x="0 : 0.5 : 1"
       sodipodi:type="inkscape:persp3d" />
    <inkscape:perspective
       id="perspective2948"
       inkscape:persp3d-origin="0.5 : 0.33333333 : 1"
       inkscape:vp_z="1 : 0.5 : 1"
       inkscape:vp_y="0 : 1000 : 0"
       inkscape:vp_x="0 : 0.5 : 1"
       sodipodi:type="inkscape:persp3d" />
    <inkscape:perspective
       id="perspective3036"
       inkscape:persp3d-origin="0.5 : 0.33333333 : 1"
       inkscape:vp_z="1 : 0.5 : 1"
       inkscape:vp_y="0 : 1000 : 0"
       inkscape:vp_x="0 : 0.5 : 1"
       sodipodi:type="inkscape:persp3d" />
    <inkscape:perspective
       id="perspective3087"
       inkscape:persp3d-origin="0.5 : 0.33333333 : 1"
       inkscape:vp_z="1 : 0.5 : 1"
       inkscape:vp_y="0 : 1000 : 0"
       inkscape:vp_x="0 : 0.5 : 1"
       sodipodi:type="inkscape:persp3d" />
    <inkscape:perspective
       id="perspective3938"
       inkscape:persp3d-origin="0.5 : 0.33333333 : 1"
       inkscape:vp_z="1 : 0.5 : 1"
       inkscape:vp_y="0 : 1000 : 0"
       inkscape:vp_x="0 : 0.5 : 1"
       sodipodi:type="inkscape:persp3d" />
    <inkscape:perspective
       id="perspective3984"
       inkscape:persp3d-origin="0.5 : 0.33333333 : 1"
       inkscape:vp_z="1 : 0.5 : 1"
       inkscape:vp_y="0 : 1000 : 0"
       inkscape:vp_x="0 : 0.5 : 1"
       sodipodi:type="inkscape:persp3d" />
    <linearGradient
       inkscape:collect="always"
       xlink:href="#linearGradient4281"
       id="linearGradient4343"
       gradientUnits="userSpaceOnUse"
       x1="429.78125"
       y1="519.505"
       x2="429.78125"
       y2="575.63837"
       gradientTransform="translate(-361.125,-492.09375)" />
    <inkscape:perspective
       id="perspective4361"
       inkscape:persp3d-origin="0.5 : 0.33333333 : 1"
       inkscape:vp_z="1 : 0.5 : 1"
       inkscape:vp_y="0 : 1000 : 0"
       inkscape:vp_x="0 : 0.5 : 1"
       sodipodi:type="inkscape:persp3d" />
    <linearGradient
       id="linearGradient4281-8">
      <stop
         style="stop-color:#44aa00;stop-opacity:1;"
         offset="0"
         id="stop4283-0" />
      <stop
         id="stop4321-2"
         offset="0.5"
         style="stop-color:#709c09;stop-opacity:0.8392157;" />
      <stop
         style="stop-color:#d40000;stop-opacity:1;"
         offset="1"
         id="stop4285-0" />
    </linearGradient>
    <inkscape:perspective
       id="perspective4455"
       inkscape:persp3d-origin="0.5 : 0.33333333 : 1"
       inkscape:vp_z="1 : 0.5 : 1"
       inkscape:vp_y="0 : 1000 : 0"
       inkscape:vp_x="0 : 0.5 : 1"
       sodipodi:type="inkscape:persp3d" />
    <inkscape:perspective
       id="perspective4455-5"
       inkscape:persp3d-origin="0.5 : 0.33333333 : 1"
       inkscape:vp_z="1 : 0.5 : 1"
       inkscape:vp_y="0 : 1000 : 0"
       inkscape:vp_x="0 : 0.5 : 1"
       sodipodi:type="inkscape:persp3d" />
    <linearGradient
       inkscape:collect="always"
       xlink:href="#linearGradient4281-8"
       id="linearGradient3847"
       gradientUnits="userSpaceOnUse"
       gradientTransform="translate(-2.7594217,140.99225)"
       x1="429.78125"
       y1="519.505"
       x2="429.78125"
       y2="575.63837" />
    <linearGradient
       inkscape:collect="always"
       xlink:href="#linearGradient4281-8"
       id="linearGradient119"
       gradientUnits="userSpaceOnUse"
       gradientTransform="translate(-2.7594217,140.99225)"
       x1="429.78125"
       y1="519.505"
       x2="429.78125"
       y2="575.63837" />
    <linearGradient
       inkscape:collect="always"
       xlink:href="#linearGradient4281-8"
       id="linearGradient181"
       gradientUnits="userSpaceOnUse"
       gradientTransform="translate(-2.7594217,140.99225)"
       x1="429.78125"
       y1="519.505"
       x2="429.78125"
       y2="575.63837" />
  </defs>
  <sodipodi:namedview
     id="base"
     pagecolor="#ffffff"
     bordercolor="#666666"
     borderopacity="1.0"
     inkscape:pageopacity="0.0"
     inkscape:pageshadow="2"
     inkscape:zoom="2.8"
     inkscape:cx="-71.90143"
     inkscape:cy="-64.999552"
     inkscape:document-units="px"
     inkscape:current-layer="g192"
     showgrid="false"
     inkscape:window-width="2560"
     inkscape:window-height="1377"
     inkscape:window-x="-8"
     inkscape:window-y="-8"
     inkscape:window-maximized="1"
     inkscape:snap-page="true" />
  <metadata
     id="metadata7">
    <rdf:RDF>
      <cc:Work
         rdf:about="">
        <dc:format>image/svg+xml</dc:format>
        <dc:type
           rdf:resource="http://purl.org/dc/dcmitype/StillImage" />
        <dc:title />
      </cc:Work>
    </rdf:RDF>
  </metadata>
  <g
     inkscape:label="Layer 1"
     inkscape:groupmode="layer"
     id="layer1"
     transform="translate(-361.125,-492.09375)">
    <rect
       style="fill:#44aa00;fill-opacity:1;stroke:#44aa00;stroke-width:0.92903036;stroke-linejoin:bevel;stroke-miterlimit:4;stroke-opacity:1;stroke-dasharray:none;stroke-dashoffset:0"
       id="rect2818-5"
       width="21.940331"
       height="55.746124"
       x="177.31892"
       y="285.61957"
       transform="matrix(1,0,0.3789906,0.92540052,0,0)" />
    <rect
       style="fill:#ff0000;fill-opacity:1;stroke:#ff0000;stroke-width:0.92903036;stroke-linejoin:bevel;stroke-miterlimit:4;stroke-opacity:1;stroke-dasharray:none;stroke-dashoffset:0"
       id="rect2818-1-5"
       width="21.940331"
       height="55.746124"
       x="137.68005"
       y="285.61957"
       transform="matrix(1,0,0.3789906,0.92540052,0,0)" />
    <rect
       style="fill:#ff0000;fill-opacity:1;stroke:#ff0000;stroke-width:0.92903036;stroke-linejoin:bevel;stroke-miterlimit:4;stroke-opacity:1;stroke-dasharray:none;stroke-dashoffset:0"
       id="rect2818-1-0-1"
       width="21.940331"
       height="55.746124"
       x="98.041168"
       y="285.61957"
       transform="matrix(1,0,0.3789906,0.92540052,0,0)" />
    <rect
       style="fill:#ff0000;fill-opacity:1;stroke:#ff0000;stroke-width:0.92903036;stroke-linejoin:bevel;stroke-miterlimit:4;stroke-opacity:1;stroke-dasharray:none;stroke-dashoffset:0"
       id="rect2818-9-1"
       width="21.940331"
       height="55.746124"
       x="-385.03088"
       y="356.7796"
       transform="matrix(-1,0,-0.3789906,0.92540052,0,0)" />
    <rect
       style="fill:#44aa00;fill-opacity:1;stroke:#44aa00;stroke-width:0.92903036;stroke-linejoin:bevel;stroke-miterlimit:4;stroke-opacity:1;stroke-dasharray:none;stroke-dashoffset:0"
       id="rect2818-1-4-5"
       width="21.940331"
       height="55.746124"
       x="-424.6698"
       y="356.7796"
       transform="matrix(-1,0,-0.3789906,0.92540052,0,0)" />
    <rect
       style="fill:#44aa00;fill-opacity:1;stroke:#44aa00;stroke-width:0.92903036;stroke-linejoin:bevel;stroke-miterlimit:4;stroke-opacity:1;stroke-dasharray:none;stroke-dashoffset:0"
       id="rect2818-1-0-8-2"
       width="21.940331"
       height="55.746124"
       x="-464.30865"
       y="356.7796"
       transform="matrix(-1,0,-0.3789906,0.92540052,0,0)" />
    <rect
       style="fill:none;stroke:#000000;stroke-width:1.33339965;stroke-linejoin:bevel;stroke-miterlimit:4;stroke-opacity:1;stroke-dasharray:none;stroke-dashoffset:0"
       id="rect2816-7"
       width="148.76483"
       height="117.44735"
       x="193.30801"
       y="264.31717" />
    <g
       id="g4306"
       transform="translate(27.274119,-64.649763)">
      <rect
         transform="matrix(1,0,0.3789906,0.92540052,0,0)"
         y="376.43393"
         x="220.07585"
         height="55.746124"
         width="21.940331"
         id="rect2818-1-0-1-4"
         style="fill:#ff0000;fill-opacity:1;stroke:#ff0000;stroke-width:0.92903036;stroke-linejoin:miter;stroke-miterlimit:4;stroke-opacity:1;stroke-dasharray:none;stroke-dashoffset:0" />
      <rect
         transform="matrix(-1,0,-0.3789906,0.92540052,0,0)"
         y="433.14581"
         x="-569.96655"
         height="55.746124"
         width="21.940331"
         id="rect2818-9-1-2"
         style="fill:#ff0000;fill-opacity:1;stroke:#ff0000;stroke-width:0.92903036;stroke-linejoin:miter;stroke-miterlimit:4;stroke-opacity:1;stroke-dasharray:none;stroke-dashoffset:0" />
      <rect
         transform="matrix(-1,0,-0.3789906,0.92540052,0,0)"
         y="433.14581"
         x="-613.60547"
         height="55.746124"
         width="21.940331"
         id="rect2818-1-4-5-3"
         style="fill:#ff0000;fill-opacity:1;stroke:#ff0000;stroke-width:0.92903036;stroke-linejoin:miter;stroke-miterlimit:4;stroke-opacity:1;stroke-dasharray:none;stroke-dashoffset:0" />
      <rect
         transform="matrix(1,0,0.3789906,0.92540052,0,0)"
         y="376.43393"
         x="307.35355"
         height="55.746124"
         width="21.940331"
         id="rect2818-5-6"
         style="fill:#44aa00;fill-opacity:1;stroke:#44aa00;stroke-width:0.92903036;stroke-linejoin:miter;stroke-miterlimit:4;stroke-opacity:1;stroke-dasharray:none;stroke-dashoffset:0" />
      <rect
         transform="matrix(-1,0,-0.3789906,0.92540052,0,0)"
         y="433.14581"
         x="-657.24432"
         height="55.746124"
         width="21.940331"
         id="rect2818-1-0-8-2-2"
         style="fill:#44aa00;fill-opacity:1;stroke:#44aa00;stroke-width:0.92903036;stroke-linejoin:miter;stroke-miterlimit:4;stroke-opacity:1;stroke-dasharray:none;stroke-dashoffset:0" />
      <rect
         transform="matrix(1,0,0.3789906,0.92540052,0,0)"
         y="376.43378"
         x="263.71472"
         height="55.746124"
         width="21.940331"
         id="rect2818-1-5-1"
         style="fill:#44aa00;fill-opacity:1;stroke:#44aa00;stroke-width:0.92933577;stroke-linejoin:miter;stroke-miterlimit:4;stroke-opacity:1;stroke-dasharray:none;stroke-dashoffset:0" />
    </g>
    <g
       id="g4674"
       inkscape:export-xdpi="702.16998"
       inkscape:export-ydpi="702.16998"
       transform="translate(-296.07143,-129.28572)">
      <g
         inkscape:export-ydpi="119.08419"
         inkscape:export-xdpi="119.08419"
         id="g4407-5-2"
         transform="translate(-0.45454414,-5.0385429)">
        <path
           style="fill:#d40000;fill-opacity:1;stroke:none"
           d="m 358.36558,633.086 24.5625,51.59375 -24.5625,51.59375 h 25.5 l 24.5625,-51.59375 -24.5625,-51.59375 z"
           id="rect2818-1-0-1-4-9-8-9-6"
           inkscape:connector-curvature="0" />
        <path
           style="fill:#44aa00;fill-opacity:1;stroke:none"
           d="m 445.61558,633.086 24.5625,51.59375 -24.5625,51.59375 h 25.53125 l 24.5625,-51.59375 -24.5625,-51.59375 z"
           id="rect2818-5-6-9-9-1-6"
           inkscape:connector-curvature="0" />
        <path
           style="fill:url(#linearGradient3847);fill-opacity:1;stroke:none"
           d="m 401.99058,633.086 24.5625,51.59375 -24.5625,51.59375 h 25.5 l 24.5625,-51.59375 -24.5625,-51.59375 z"
           id="rect2818-1-4-5-3-7-2-2-7"
           inkscape:connector-curvature="0" />
      </g>
      <rect
         y="608.70984"
         x="355.98215"
         height="140"
         width="140"
         id="rect4667"
         style="fill:none;stroke:none;stroke-width:1.25494158" />
    </g>
    <g
       id="g192"
       inkscape:export-xdpi="128.46001"
       inkscape:export-ydpi="128.46001">
      <g
         id="g885"
         inkscape:export-xdpi="128.46001"
         inkscape:export-ydpi="128.46001">
        <g
           aria-label="CUTE"
           style="font-style:normal;font-variant:normal;font-weight:normal;font-stretch:normal;font-size:147.99206543px;line-height:1.25;font-family:Quicksand;-inkscape-font-specification:Quicksand;letter-spacing:-20px;word-spacing:0px;fill:#424549;fill-opacity:1;stroke:none;stroke-width:3.69980145"
           id="text83">
          <path
             d="m -9.5264304,679.46858 c 0,28.85845 24.1227064,52.2412 53.8691114,52.2412 12.727318,0 24.418691,-4.29177 33.446207,-11.2474 1.627913,-1.18394 1.923897,-3.84779 0.443976,-5.17972 -1.035944,-1.77591 -3.403817,-2.07189 -5.179722,-0.88795 -7.695587,6.51165 -17.759048,10.06346 -28.710461,10.06346 -25.898611,0 -46.6175002,-20.27492 -46.6175002,-44.98959 0,-25.30664 20.7188892,-45.58156 46.6175002,-45.58156 10.951413,0 21.014874,3.8478 29.006445,10.06346 1.479921,1.18394 3.847794,1.03595 5.03173,-0.73996 1.331929,-1.33193 1.035945,-3.84779 -0.591968,-5.17972 -9.027516,-6.95563 -20.718889,-11.39539 -33.446207,-11.39539 -29.746405,0.14799 -53.8691114,23.38275 -53.8691114,52.83317 z"
             style="font-style:normal;font-variant:normal;font-weight:normal;font-stretch:normal;font-family:Quicksand;-inkscape-font-specification:Quicksand;letter-spacing:-20px;stroke-width:3.69980145;fill:#424549;fill-opacity:1"
             id="path121" />
          <path
             d="m 89.382884,689.82802 c 0,23.08677 18.794996,41.88176 41.733766,41.88176 23.23475,0 42.02974,-18.79499 42.02974,-41.88176 v -58.16088 c 0,-1.9239 -1.62791,-3.55181 -3.6998,-3.55181 -1.9239,0 -3.55181,1.62791 -3.55181,3.55181 v 58.16088 c 0,19.09098 -15.53916,34.48215 -34.77813,34.63015 -18.94299,-0.148 -34.482154,-15.53917 -34.482154,-34.63015 v -58.16088 c 0,-1.9239 -1.627913,-3.55181 -3.699802,-3.55181 -1.923897,0 -3.55181,1.62791 -3.55181,3.55181 z"
             style="font-style:normal;font-variant:normal;font-weight:normal;font-stretch:normal;font-family:Quicksand;-inkscape-font-specification:Quicksand;letter-spacing:-20px;stroke-width:3.69980145;fill:#424549;fill-opacity:1"
             id="path123" />
          <path
             d="m 212.21834,728.15797 c 0,1.9239 1.62791,3.55181 3.55181,3.55181 1.9239,0 3.55181,-1.62791 3.55181,-3.55181 v -92.79103 h 31.22633 c 1.92389,0 3.5518,-1.62791 3.5518,-3.6998 0,-1.9239 -1.62791,-3.55181 -3.5518,-3.55181 h -69.55628 c -1.92389,0 -3.5518,1.62791 -3.5518,3.55181 0,2.07189 1.62791,3.6998 3.5518,3.6998 h 31.22633 z"
             style="font-style:normal;font-variant:normal;font-weight:normal;font-stretch:normal;font-family:Quicksand;-inkscape-font-specification:Quicksand;letter-spacing:-20px;stroke-width:3.69980145;fill:#424549;fill-opacity:1"
             id="path125" />
          <path
             d="m 261.3954,728.15797 c 0,1.9239 1.47992,3.40382 3.25583,3.55181 h 0.29598 0.44398 52.83316 c 2.07189,0 3.55181,-1.62791 3.55181,-3.55181 0,-2.07189 -1.47992,-3.6998 -3.55181,-3.6998 h -49.57734 v -40.84581 h 37.1745 l 1.76844,-3.70381 -1.76844,-3.5478 h -37.1745 v -40.99381 h 49.57734 c 2.07189,0 3.55181,-1.62791 3.55181,-3.6998 0,-1.9239 -1.47992,-3.55181 -3.55181,-3.55181 h -52.98116 -0.29598 c -1.9239,0 -3.55181,1.62791 -3.55181,3.55181 z"
             style="font-style:normal;font-variant:normal;font-weight:normal;font-stretch:normal;font-family:Quicksand;-inkscape-font-specification:Quicksand;letter-spacing:-20px;stroke-width:3.69980145;fill:#424549;fill-opacity:1"
             id="path127"
             inkscape:connector-curvature="0"
             sodipodi:nodetypes="scccssscccccccssscsss" />
        </g>
        <g
           transform="matrix(1.0039394,0,0,1.0039394,-58.790164,-7.4684322)"
           id="g4407-5-2-4-9-4-2"
           inkscape:export-xdpi="119.08419"
           inkscape:export-ydpi="119.08419">
          <path
             inkscape:connector-curvature="0"
             id="rect2818-1-0-1-4-9-8-9-6-0-5-9-4"
             d="m 358.36558,633.086 24.5625,51.59375 -24.5625,51.59375 h 25.5 l 24.5625,-51.59375 -24.5625,-51.59375 z"
             style="fill:#d40000;fill-opacity:1;stroke:none" />
          <path
             inkscape:connector-curvature="0"
             id="rect2818-5-6-9-9-1-6-0-0-9-6"
             d="m 445.61558,633.086 24.5625,51.59375 -24.5625,51.59375 h 25.53125 l 24.5625,-51.59375 -24.5625,-51.59375 z"
             style="fill:#44aa00;fill-opacity:1;stroke:none" />
          <path
             inkscape:connector-curvature="0"
             id="rect2818-1-4-5-3-7-2-2-7-9-8-8-5"
             d="m 401.99058,633.086 24.5625,51.59375 -24.5625,51.59375 h 25.5 l 24.5625,-51.59375 -24.5625,-51.59375 z"
             style="fill:url(#linearGradient119);fill-opacity:1;stroke:none" />
        </g>
      </g>
    </g>
    <g
       id="g203"
       inkscape:export-xdpi="128.46001"
       inkscape:export-ydpi="128.46001">
      <g
         id="text83-9"
         style="font-style:normal;font-variant:normal;font-weight:normal;font-stretch:normal;font-size:147.99206543px;line-height:1.25;font-family:Quicksand;-inkscape-font-specification:Quicksand;letter-spacing:-20px;word-spacing:0px;fill:#ffffff;fill-opacity:1;stroke:none;stroke-width:3.69980145"
         aria-label="CUTE"
         transform="translate(-1.04777,128.9658)">
        <path
           id="path121-6"
           style="font-style:normal;font-variant:normal;font-weight:normal;font-stretch:normal;font-family:Quicksand;-inkscape-font-specification:Quicksand;letter-spacing:-20px;stroke-width:3.69980145;fill:#ffffff"
           d="m -9.5264304,679.46858 c 0,28.85845 24.1227064,52.2412 53.8691114,52.2412 12.727318,0 24.418691,-4.29177 33.446207,-11.2474 1.627913,-1.18394 1.923897,-3.84779 0.443976,-5.17972 -1.035944,-1.77591 -3.403817,-2.07189 -5.179722,-0.88795 -7.695587,6.51165 -17.759048,10.06346 -28.710461,10.06346 -25.898611,0 -46.6175002,-20.27492 -46.6175002,-44.98959 0,-25.30664 20.7188892,-45.58156 46.6175002,-45.58156 10.951413,0 21.014874,3.8478 29.006445,10.06346 1.479921,1.18394 3.847794,1.03595 5.03173,-0.73996 1.331929,-1.33193 1.035945,-3.84779 -0.591968,-5.17972 -9.027516,-6.95563 -20.718889,-11.39539 -33.446207,-11.39539 -29.746405,0.14799 -53.8691114,23.38275 -53.8691114,52.83317 z"
           inkscape:connector-curvature="0" />
        <path
           id="path123-2"
           style="font-style:normal;font-variant:normal;font-weight:normal;font-stretch:normal;font-family:Quicksand;-inkscape-font-specification:Quicksand;letter-spacing:-20px;stroke-width:3.69980145;fill:#ffffff"
           d="m 89.382884,689.82802 c 0,23.08677 18.794996,41.88176 41.733766,41.88176 23.23475,0 42.02974,-18.79499 42.02974,-41.88176 v -58.16088 c 0,-1.9239 -1.62791,-3.55181 -3.6998,-3.55181 -1.9239,0 -3.55181,1.62791 -3.55181,3.55181 v 58.16088 c 0,19.09098 -15.53916,34.48215 -34.77813,34.63015 -18.94299,-0.148 -34.482154,-15.53917 -34.482154,-34.63015 v -58.16088 c 0,-1.9239 -1.627913,-3.55181 -3.699802,-3.55181 -1.923897,0 -3.55181,1.62791 -3.55181,3.55181 z"
           inkscape:connector-curvature="0" />
        <path
           id="path125-1"
           style="font-style:normal;font-variant:normal;font-weight:normal;font-stretch:normal;font-family:Quicksand;-inkscape-font-specification:Quicksand;letter-spacing:-20px;stroke-width:3.69980145;fill:#ffffff"
           d="m 212.21834,728.15797 c 0,1.9239 1.62791,3.55181 3.55181,3.55181 1.9239,0 3.55181,-1.62791 3.55181,-3.55181 v -92.79103 h 31.22633 c 1.92389,0 3.5518,-1.62791 3.5518,-3.6998 0,-1.9239 -1.62791,-3.55181 -3.5518,-3.55181 h -69.55628 c -1.92389,0 -3.5518,1.62791 -3.5518,3.55181 0,2.07189 1.62791,3.6998 3.5518,3.6998 h 31.22633 z"
           inkscape:connector-curvature="0" />
        <path
           sodipodi:nodetypes="scccssscccccccssscsss"
           inkscape:connector-curvature="0"
           id="path127-0"
           style="font-style:normal;font-variant:normal;font-weight:normal;font-stretch:normal;font-family:Quicksand;-inkscape-font-specification:Quicksand;letter-spacing:-20px;stroke-width:3.69980145;fill:#ffffff"
           d="m 261.3954,728.15797 c 0,1.9239 1.47992,3.40382 3.25583,3.55181 h 0.29598 0.44398 52.83316 c 2.07189,0 3.55181,-1.62791 3.55181,-3.55181 0,-2.07189 -1.47992,-3.6998 -3.55181,-3.6998 h -49.57734 v -40.84581 h 37.1745 l 1.76844,-3.70381 -1.76844,-3.5478 h -37.1745 v -40.99381 h 49.57734 c 2.07189,0 3.55181,-1.62791 3.55181,-3.6998 0,-1.9239 -1.47992,-3.55181 -3.55181,-3.55181 h -52.98116 -0.29598 c -1.9239,0 -3.55181,1.62791 -3.55181,3.55181 z" />
      </g>
      <g
         inkscape:export-ydpi="119.08419"
         inkscape:export-xdpi="119.08419"
         id="g4407-5-2-4-9-4-2-4"
         transform="matrix(1.0039394,0,0,1.0039394,-59.837928,121.49737)">
        <path
           style="fill:#d40000;fill-opacity:1;stroke:none"
           d="m 358.36558,633.086 24.5625,51.59375 -24.5625,51.59375 h 25.5 l 24.5625,-51.59375 -24.5625,-51.59375 z"
           id="rect2818-1-0-1-4-9-8-9-6-0-5-9-4-0"
           inkscape:connector-curvature="0" />
        <path
           style="fill:#44aa00;fill-opacity:1;stroke:none"
           d="m 445.61558,633.086 24.5625,51.59375 -24.5625,51.59375 h 25.53125 l 24.5625,-51.59375 -24.5625,-51.59375 z"
           id="rect2818-5-6-9-9-1-6-0-0-9-6-1"
           inkscape:connector-curvature="0" />
        <path
           style="fill:url(#linearGradient181);fill-opacity:1;stroke:none"
           d="m 401.99058,633.086 24.5625,51.59375 -24.5625,51.59375 h 25.5 l 24.5625,-51.59375 -24.5625,-51.59375 z"
           id="rect2818-1-4-5-3-7-2-2-7-9-8-8-5-3"
           inkscape:connector-curvature="0" />
      </g>
    </g>
  </g>
</svg>
